<svg width="139" height="117" viewBox="0 0 139 117" fill="none" xmlns="http://www.w3.org/2000/svg">
<rect x="7" y="75" width="132" height="18" fill="#F33479"/>
<path d="M100.807 88.0801C100.807 87.8783 100.748 87.696 100.631 87.5332C100.514 87.3704 100.296 87.2207 99.9766 87.084C99.6641 86.9408 99.2116 86.8105 98.6191 86.6934C98.0853 86.5762 97.5872 86.4297 97.125 86.2539C96.6693 86.0716 96.2721 85.8535 95.9336 85.5996C95.6016 85.3457 95.3411 85.0462 95.1523 84.7012C94.9635 84.3496 94.8691 83.9492 94.8691 83.5C94.8691 83.0573 94.9635 82.6406 95.1523 82.25C95.3477 81.8594 95.6243 81.5143 95.9824 81.2148C96.347 80.9089 96.7897 80.6712 97.3105 80.502C97.8379 80.3262 98.4303 80.2383 99.0879 80.2383C100.006 80.2383 100.794 80.3848 101.451 80.6777C102.115 80.9707 102.623 81.3743 102.975 81.8887C103.333 82.3965 103.512 82.9759 103.512 83.627H100.699C100.699 83.3535 100.641 83.1094 100.523 82.8945C100.413 82.6732 100.237 82.5007 99.9961 82.377C99.7617 82.2467 99.4557 82.1816 99.0781 82.1816C98.7656 82.1816 98.4954 82.237 98.2676 82.3477C98.0397 82.4518 97.8639 82.5951 97.7402 82.7773C97.623 82.9531 97.5645 83.1484 97.5645 83.3633C97.5645 83.526 97.597 83.6725 97.6621 83.8027C97.7337 83.9264 97.8477 84.0404 98.0039 84.1445C98.1602 84.2487 98.362 84.3464 98.6094 84.4375C98.8633 84.5221 99.1758 84.6003 99.5469 84.6719C100.309 84.8281 100.989 85.0332 101.588 85.2871C102.187 85.5345 102.662 85.873 103.014 86.3027C103.365 86.7259 103.541 87.2826 103.541 87.9727C103.541 88.4414 103.437 88.8711 103.229 89.2617C103.02 89.6523 102.721 89.9941 102.33 90.2871C101.939 90.5736 101.471 90.7982 100.924 90.9609C100.383 91.1172 99.7747 91.1953 99.0977 91.1953C98.1146 91.1953 97.2812 91.0195 96.5977 90.668C95.9206 90.3164 95.4062 89.8704 95.0547 89.3301C94.7096 88.7832 94.5371 88.2233 94.5371 87.6504H97.2031C97.2161 88.0345 97.3138 88.3438 97.4961 88.5781C97.6849 88.8125 97.9225 88.9818 98.209 89.0859C98.502 89.1901 98.8177 89.2422 99.1562 89.2422C99.5208 89.2422 99.8236 89.1934 100.064 89.0957C100.305 88.9915 100.488 88.8548 100.611 88.6855C100.742 88.5098 100.807 88.3079 100.807 88.0801ZM110.543 80.4336V82.4258H104.391V80.4336H110.543ZM105.914 77.8262H108.727V87.8164C108.727 88.1224 108.766 88.3568 108.844 88.5195C108.928 88.6823 109.052 88.7962 109.215 88.8613C109.378 88.9199 109.583 88.9492 109.83 88.9492C110.006 88.9492 110.162 88.9427 110.299 88.9297C110.442 88.9102 110.562 88.8906 110.66 88.8711L110.67 90.9414C110.429 91.0195 110.169 91.0814 109.889 91.127C109.609 91.1725 109.299 91.1953 108.961 91.1953C108.342 91.1953 107.802 91.0944 107.34 90.8926C106.884 90.6842 106.533 90.3522 106.285 89.8965C106.038 89.4408 105.914 88.8418 105.914 88.0996V77.8262ZM117.848 88.6172V83.9102C117.848 83.5716 117.792 83.2819 117.682 83.041C117.571 82.7936 117.398 82.6016 117.164 82.4648C116.936 82.3281 116.64 82.2598 116.275 82.2598C115.963 82.2598 115.693 82.3151 115.465 82.4258C115.237 82.5299 115.061 82.6829 114.938 82.8848C114.814 83.0801 114.752 83.3112 114.752 83.5781H111.939C111.939 83.1289 112.044 82.7025 112.252 82.2988C112.46 81.8952 112.763 81.5404 113.16 81.2344C113.557 80.9219 114.029 80.6777 114.576 80.502C115.13 80.3262 115.748 80.2383 116.432 80.2383C117.252 80.2383 117.981 80.375 118.619 80.6484C119.257 80.9219 119.758 81.332 120.123 81.8789C120.494 82.4258 120.68 83.1094 120.68 83.9297V88.4512C120.68 89.0306 120.715 89.5059 120.787 89.877C120.859 90.2415 120.963 90.5605 121.1 90.834V91H118.258C118.121 90.7135 118.017 90.3555 117.945 89.9258C117.88 89.4896 117.848 89.0534 117.848 88.6172ZM118.219 84.5645L118.238 86.1562H116.666C116.295 86.1562 115.973 86.1986 115.699 86.2832C115.426 86.3678 115.201 86.4883 115.025 86.6445C114.85 86.7943 114.719 86.9701 114.635 87.1719C114.557 87.3737 114.518 87.5951 114.518 87.8359C114.518 88.0768 114.573 88.2949 114.684 88.4902C114.794 88.679 114.954 88.8288 115.162 88.9395C115.37 89.0436 115.615 89.0957 115.895 89.0957C116.318 89.0957 116.686 89.0111 116.998 88.8418C117.311 88.6725 117.551 88.4642 117.721 88.2168C117.896 87.9694 117.988 87.735 117.994 87.5137L118.736 88.7051C118.632 88.972 118.489 89.2487 118.307 89.5352C118.131 89.8216 117.906 90.0918 117.633 90.3457C117.359 90.5931 117.031 90.7982 116.646 90.9609C116.262 91.1172 115.807 91.1953 115.279 91.1953C114.609 91.1953 114 91.0618 113.453 90.7949C112.913 90.5215 112.483 90.1471 112.164 89.6719C111.852 89.1901 111.695 88.6432 111.695 88.0312C111.695 87.4779 111.799 86.9863 112.008 86.5566C112.216 86.127 112.522 85.7656 112.926 85.4727C113.336 85.1732 113.847 84.9486 114.459 84.7988C115.071 84.6426 115.781 84.5645 116.588 84.5645H118.219ZM128.023 80.4336V82.4258H121.871V80.4336H128.023ZM123.395 77.8262H126.207V87.8164C126.207 88.1224 126.246 88.3568 126.324 88.5195C126.409 88.6823 126.533 88.7962 126.695 88.8613C126.858 88.9199 127.063 88.9492 127.311 88.9492C127.486 88.9492 127.643 88.9427 127.779 88.9297C127.923 88.9102 128.043 88.8906 128.141 88.8711L128.15 90.9414C127.91 91.0195 127.649 91.0814 127.369 91.127C127.089 91.1725 126.78 91.1953 126.441 91.1953C125.823 91.1953 125.283 91.0944 124.82 90.8926C124.365 90.6842 124.013 90.3522 123.766 89.8965C123.518 89.4408 123.395 88.8418 123.395 88.0996V77.8262ZM135.338 88.0801C135.338 87.8783 135.279 87.696 135.162 87.5332C135.045 87.3704 134.827 87.2207 134.508 87.084C134.195 86.9408 133.743 86.8105 133.15 86.6934C132.617 86.5762 132.118 86.4297 131.656 86.2539C131.201 86.0716 130.803 85.8535 130.465 85.5996C130.133 85.3457 129.872 85.0462 129.684 84.7012C129.495 84.3496 129.4 83.9492 129.4 83.5C129.4 83.0573 129.495 82.6406 129.684 82.25C129.879 81.8594 130.156 81.5143 130.514 81.2148C130.878 80.9089 131.321 80.6712 131.842 80.502C132.369 80.3262 132.962 80.2383 133.619 80.2383C134.537 80.2383 135.325 80.3848 135.982 80.6777C136.646 80.9707 137.154 81.3743 137.506 81.8887C137.864 82.3965 138.043 82.9759 138.043 83.627H135.23C135.23 83.3535 135.172 83.1094 135.055 82.8945C134.944 82.6732 134.768 82.5007 134.527 82.377C134.293 82.2467 133.987 82.1816 133.609 82.1816C133.297 82.1816 133.027 82.237 132.799 82.3477C132.571 82.4518 132.395 82.5951 132.271 82.7773C132.154 82.9531 132.096 83.1484 132.096 83.3633C132.096 83.526 132.128 83.6725 132.193 83.8027C132.265 83.9264 132.379 84.0404 132.535 84.1445C132.691 84.2487 132.893 84.3464 133.141 84.4375C133.395 84.5221 133.707 84.6003 134.078 84.6719C134.84 84.8281 135.52 85.0332 136.119 85.2871C136.718 85.5345 137.193 85.873 137.545 86.3027C137.896 86.7259 138.072 87.2826 138.072 87.9727C138.072 88.4414 137.968 88.8711 137.76 89.2617C137.551 89.6523 137.252 89.9941 136.861 90.2871C136.471 90.5736 136.002 90.7982 135.455 90.9609C134.915 91.1172 134.306 91.1953 133.629 91.1953C132.646 91.1953 131.812 91.0195 131.129 90.668C130.452 90.3164 129.938 89.8704 129.586 89.3301C129.241 88.7832 129.068 88.2233 129.068 87.6504H131.734C131.747 88.0345 131.845 88.3438 132.027 88.5781C132.216 88.8125 132.454 88.9818 132.74 89.0859C133.033 89.1901 133.349 89.2422 133.688 89.2422C134.052 89.2422 134.355 89.1934 134.596 89.0957C134.837 88.9915 135.019 88.8548 135.143 88.6855C135.273 88.5098 135.338 88.3079 135.338 88.0801Z" fill="white"/>
<path d="M34.0332 67.6582H15.918V56.2324H34.0332C36.8327 56.2324 39.1113 55.7767 40.8691 54.8652C42.627 53.9212 43.9128 52.6191 44.7266 50.959C45.5404 49.2988 45.9473 47.4271 45.9473 45.3438C45.9473 43.2279 45.5404 41.2585 44.7266 39.4355C43.9128 37.6126 42.627 36.1478 40.8691 35.041C39.1113 33.9342 36.8327 33.3809 34.0332 33.3809H20.9961V93H6.34766V21.9062H34.0332C39.5996 21.9062 44.3685 22.9154 48.3398 24.9336C52.3438 26.9193 55.4036 29.6699 57.5195 33.1855C59.6354 36.7012 60.6934 40.7214 60.6934 45.2461C60.6934 49.8359 59.6354 53.8073 57.5195 57.1602C55.4036 60.513 52.3438 63.1009 48.3398 64.9238C44.3685 66.7467 39.5996 67.6582 34.0332 67.6582Z" fill="white"/>
<path d="M70.1738 22.4531H83.4307C86.1488 22.4531 88.4844 22.86 90.4375 23.6738C92.4069 24.4876 93.9206 25.6921 94.9785 27.2871C96.0365 28.8822 96.5654 30.8434 96.5654 33.1709C96.5654 35.0752 96.2399 36.7109 95.5889 38.0781C94.9541 39.429 94.0508 40.5602 92.8789 41.4717C91.7233 42.3669 90.3643 43.083 88.8018 43.6201L86.4824 44.8408H74.959L74.9102 39.1279H83.4795C84.7653 39.1279 85.8314 38.9001 86.6777 38.4443C87.5241 37.9886 88.1589 37.3538 88.582 36.54C89.0215 35.7262 89.2412 34.7822 89.2412 33.708C89.2412 32.5687 89.0296 31.584 88.6064 30.7539C88.1833 29.9238 87.5404 29.2891 86.6777 28.8496C85.8151 28.4102 84.7327 28.1904 83.4307 28.1904H77.498V58H70.1738V22.4531ZM90.0469 58L81.9414 42.1553L89.6807 42.1064L97.8838 57.6582V58H90.0469Z" fill="white"/>
<path d="M135.373 39.3965V41.0811C135.373 43.7829 135.007 46.208 134.274 48.3564C133.542 50.5049 132.508 52.3359 131.174 53.8496C129.839 55.347 128.244 56.4945 126.389 57.292C124.549 58.0895 122.507 58.4883 120.261 58.4883C118.031 58.4883 115.988 58.0895 114.133 57.292C112.294 56.4945 110.699 55.347 109.348 53.8496C107.997 52.3359 106.947 50.5049 106.198 48.3564C105.466 46.208 105.1 43.7829 105.1 41.0811V39.3965C105.1 36.6784 105.466 34.2533 106.198 32.1211C106.931 29.9727 107.964 28.1416 109.299 26.6279C110.65 25.1143 112.245 23.9587 114.084 23.1611C115.939 22.3636 117.982 21.9648 120.212 21.9648C122.458 21.9648 124.501 22.3636 126.34 23.1611C128.195 23.9587 129.79 25.1143 131.125 26.6279C132.476 28.1416 133.518 29.9727 134.25 32.1211C134.999 34.2533 135.373 36.6784 135.373 39.3965ZM127.976 41.0811V39.3477C127.976 37.4596 127.805 35.7995 127.463 34.3672C127.121 32.9349 126.617 31.7305 125.949 30.7539C125.282 29.7773 124.468 29.0449 123.508 28.5566C122.548 28.0521 121.449 27.7998 120.212 27.7998C118.975 27.7998 117.876 28.0521 116.916 28.5566C115.972 29.0449 115.166 29.7773 114.499 30.7539C113.848 31.7305 113.352 32.9349 113.01 34.3672C112.668 35.7995 112.497 37.4596 112.497 39.3477V41.0811C112.497 42.9528 112.668 44.613 113.01 46.0615C113.352 47.4938 113.856 48.7064 114.523 49.6992C115.191 50.6758 116.005 51.4163 116.965 51.9209C117.925 52.4255 119.024 52.6777 120.261 52.6777C121.498 52.6777 122.596 52.4255 123.557 51.9209C124.517 51.4163 125.323 50.6758 125.974 49.6992C126.625 48.7064 127.121 47.4938 127.463 46.0615C127.805 44.613 127.976 42.9528 127.976 41.0811Z" fill="white"/>
</svg>
